<?xml version="1.0" standalone="no"?><!DOCTYPE svg PUBLIC "-//W3C//DTD SVG 1.1//EN" "http://www.w3.org/Graphics/SVG/1.1/DTD/svg11.dtd"><svg t="1681957389142" class="icon" viewBox="0 0 1024 1024" version="1.1" xmlns="http://www.w3.org/2000/svg" p-id="4344" xmlns:xlink="http://www.w3.org/1999/xlink" width="200" height="200"><path d="M519.68 268.8h87.04a12.8 12.8 0 0 0 12.8-12.8V112.64h-112.64v143.36a12.8 12.8 0 0 0 12.8 12.8z" fill="#4b8ec7" p-id="4345"></path><path d="M831.14752 112.64H709.12v200.80384c0 14.13888-11.46112 25.6-25.6 25.6H315.73248c-14.13888 0-25.6-11.46112-25.6-25.6V112.64H165.54752c-42.41664 0-76.8 34.38336-76.8 76.8v668.16c0 42.24 34.56 76.8 76.8 76.8h665.6c42.24 0 76.8-34.56 76.8-76.8V189.44c0-42.24-34.56-76.8-76.8-76.8zM764.16 750.08c0 28.27776-22.92224 51.2-51.2 51.2H283.73248c-28.27776 0-51.2-22.92224-51.2-51.2v-213.86752c0-28.27776 22.92224-51.2 51.2-51.2H712.96c28.27776 0 51.2 22.92224 51.2 51.2V750.08z" fill="#4b8ec7" p-id="4346"></path></svg>