<svg t="1681898180512" class="icon" viewBox="0 0 1024 1024" version="1.1" xmlns="http://www.w3.org/2000/svg" p-id="4452" width="200" height="200" data-spm-anchor-id="a313x.7781069.0.i8"><path d="M710.4 0H64v1024h896V249.6L710.4 0zM128 960V64h550.4v224H896V960H128z" fill="#18c8e2" p-id="4453"></path><path d="M672 512c-12.8-12.8-25.6-19.2-44.8-32-32-12.8-64-19.2-115.2-38.4-25.6-6.4-38.4-12.8-44.8-19.2-6.4 0-12.8-12.8 0-25.6 6.4-12.8 19.2-19.2 32-19.2 25.6 0 25.6 0 44.8 6.4 25.6 12.8 19.2 25.6 19.2 44.8l121.6-6.4c-6.4-38.4-25.6-70.4-51.2-89.6-25.6-19.2-64-25.6-115.2-25.6-44.8 0-64 0-102.4 12.8-25.6 12.8-32 19.2-57.6 44.8-12.8 12.8-19.2 38.4-19.2 57.6 0 32 19.2 57.6 44.8 76.8 6.4 6.4 12.8 6.4 19.2 12.8 19.2 12.8 51.2 25.6 89.6 38.4 38.4 6.4 51.2 12.8 64 19.2 6.4 6.4 12.8 12.8 19.2 25.6 0 6.4 0 19.2-12.8 32-19.2 12.8-25.6 12.8-44.8 12.8-32 0-44.8-6.4-64-25.6-6.4-12.8-12.8-25.6-12.8-44.8L326.4 576c6.4 44.8 19.2 64 51.2 96 51.2 32 70.4 44.8 140.8 44.8 38.4 0 64 0 96-6.4s51.2-32 64-51.2c12.8-19.2 19.2-44.8 19.2-70.4 0-32-6.4-44.8-12.8-64 0-6.4-6.4-6.4-12.8-12.8z" fill="#18c8e2" p-id="4454"></path></svg>